<svg width="1675" height="5469" viewBox="0 0 1675 5469" fill="none" xmlns="http://www.w3.org/2000/svg">
<g filter="url(#filter0_d_29_319)">
<path d="M325.173 11C168.44 11 84.2439 51.901 0.644531 51.901V1082H1672.63V11C1568.13 11 1467.12 51.901 1350.43 51.901C1233.73 51.901 1138.04 11 1012.54 11C887.055 11 802.441 51.901 666.536 51.901C530.632 51.901 481.905 11 325.173 11Z" fill="#F4F7F9"/>
</g>
<g filter="url(#filter1_d_29_319)">
<path d="M256.668 53.5C99.8875 53.5 84.2439 73 0.644531 83.8567V1079.91H1672.63V48.6891C1572.2 61.7513 1582.57 83.8567 1465.84 83.8567C1349.12 83.8567 1171.51 61.7513 1045.98 61.7513C920.45 61.7513 721.988 92.3973 586.043 92.3973C450.097 92.3973 413.448 53.5 256.668 53.5Z" fill="#EAF0F4"/>
</g>
<g filter="url(#filter2_d_29_319)">
<path d="M1348.1 918C1504.84 918 1589.03 953.797 1672.63 953.797V1855.35H0.644531V918C105.144 918 206.16 953.797 322.85 953.797C439.541 953.797 535.241 918 660.731 918C786.221 918 870.835 953.797 1006.74 953.797C1142.64 953.797 1191.37 918 1348.1 918Z" fill="#F4F7F9"/>
</g>
<g filter="url(#filter3_d_29_319)">
<path d="M1407.32 968C1568.57 968 1591.35 993.75 1672.63 1008.32L1672.63 1865.92H0.644531V933.978C97.016 954 85.5206 963.707 211.385 977.5C337.248 991.293 491.58 966.684 620.684 966.684C749.788 966.684 953.903 993.75 1093.72 993.75C1233.54 993.75 1246.07 968 1407.32 968Z" fill="white"/>
</g>
<g filter="url(#filter4_d_29_319)">
<path d="M329.817 3606C173.084 3606 84.2439 3646.9 0.644531 3646.9V4677H1672.63V3606C1568.13 3606 1471.76 3646.9 1355.07 3646.9C1238.38 3646.9 1142.68 3606 1017.19 3606C891.699 3606 807.085 3646.9 671.181 3646.9C535.277 3646.9 486.549 3606 329.817 3606Z" fill="#F4F7F9"/>
</g>
<g filter="url(#filter5_d_29_319)">
<path d="M250.962 3643.69C94.1818 3643.69 84.8244 3664.54 0.644531 3687.4V4674.91H1672.63V3643.69C1568.1 3643.69 1419.55 3687.4 1302.82 3687.4C1186.09 3687.4 1053.89 3656 928.365 3656C802.837 3656 726.633 3687.4 590.687 3687.4C454.742 3687.4 407.742 3643.69 250.962 3643.69Z" fill="#EAF0F4"/>
</g>
<g filter="url(#filter6_d_29_319)">
<path d="M329.817 1707C173.084 1707 84.2439 1724.5 0.644531 1724.5L5.28894 2778H1672.63V1707C1568.13 1707 1471.76 1747.9 1355.07 1747.9C1238.38 1747.9 1142.68 1707 1017.19 1707C891.699 1707 807.085 1747.9 671.181 1747.9C535.277 1747.9 486.549 1707 329.817 1707Z" fill="#F4F7F9"/>
</g>
<g filter="url(#filter7_d_29_319)">
<path d="M271.181 1750C113.271 1760 109.208 1779.86 0.644531 1779.86V2775.91H1672.63V1744.69C1568.1 1744.69 1500.24 1788.4 1383.52 1788.4C1266.79 1788.4 1176.15 1757.75 1050.62 1757.75C925.095 1757.75 726.633 1788.4 590.687 1788.4C454.742 1788.4 429.091 1740 271.181 1750Z" fill="#EAF0F4"/>
</g>
<g filter="url(#filter8_d_29_319)">
<path d="M1348.1 2614C1504.84 2614 1589.03 2649.8 1672.63 2649.8V3551.35H-3.99988V2604.5C100.499 2604.5 206.16 2649.8 322.85 2649.8C439.541 2649.8 535.241 2614 660.731 2614C786.221 2614 870.835 2649.8 1006.74 2649.8C1142.64 2649.8 1191.37 2614 1348.1 2614Z" fill="#F4F7F9"/>
</g>
<g filter="url(#filter9_d_29_319)">
<path d="M1445.64 2662.68C1596.58 2678.5 1588.45 2689.75 1672.63 2704.32L1672.63 3561.92H0.644531V2629.98C108.153 2629.98 202.799 2698.5 322.85 2698.5C442.901 2698.5 496.225 2662.68 625.329 2662.68C754.432 2662.68 958.548 2689.75 1098.37 2689.75C1238.18 2689.75 1294.69 2646.87 1445.64 2662.68Z" fill="white"/>
</g>
<g filter="url(#filter10_d_29_319)">
<path d="M1352.75 4513C1509.48 4513 1589.03 4548.8 1672.63 4548.8V5450.35H0.644531V4520.5C105.144 4520.5 210.804 4548.8 327.495 4548.8C444.186 4548.8 539.885 4513 665.375 4513C790.866 4513 875.48 4548.8 1011.38 4548.8C1147.29 4548.8 1196.02 4513 1352.75 4513Z" fill="#F4F7F9"/>
</g>
<g filter="url(#filter11_d_29_319)">
<path d="M1420.67 4561.68C1581.92 4561.68 1584.39 4577.5 1672.63 4596V5460.92H0.644531V4577.5C108.153 4577.5 139.396 4603.25 272.923 4596C406.45 4588.75 496.225 4561.68 625.329 4561.68C754.432 4561.68 958.548 4588.75 1098.37 4588.75C1238.18 4588.75 1259.43 4561.68 1420.67 4561.68Z" fill="white"/>
</g>
<defs>
<filter id="filter0_d_29_319" x="-6.35547" y="0" width="1685.99" height="1085" filterUnits="userSpaceOnUse" color-interpolation-filters="sRGB">
<feFlood flood-opacity="0" result="BackgroundImageFix"/>
<feColorMatrix in="SourceAlpha" type="matrix" values="0 0 0 0 0 0 0 0 0 0 0 0 0 0 0 0 0 0 127 0" result="hardAlpha"/>
<feOffset dy="-4"/>
<feGaussianBlur stdDeviation="3.5"/>
<feComposite in2="hardAlpha" operator="out"/>
<feColorMatrix type="matrix" values="0 0 0 0 0.247059 0 0 0 0 0.341176 0 0 0 0 0.384314 0 0 0 0.1 0"/>
<feBlend mode="normal" in2="BackgroundImageFix" result="effect1_dropShadow_29_319"/>
<feBlend mode="normal" in="SourceGraphic" in2="effect1_dropShadow_29_319" result="shape"/>
</filter>
<filter id="filter1_d_29_319" x="-4.35547" y="37.6891" width="1681.99" height="1042.22" filterUnits="userSpaceOnUse" color-interpolation-filters="sRGB">
<feFlood flood-opacity="0" result="BackgroundImageFix"/>
<feColorMatrix in="SourceAlpha" type="matrix" values="0 0 0 0 0 0 0 0 0 0 0 0 0 0 0 0 0 0 127 0" result="hardAlpha"/>
<feOffset dy="-6"/>
<feGaussianBlur stdDeviation="2.5"/>
<feComposite in2="hardAlpha" operator="out"/>
<feColorMatrix type="matrix" values="0 0 0 0 0.247059 0 0 0 0 0.341176 0 0 0 0 0.384314 0 0 0 0.1 0"/>
<feBlend mode="normal" in2="BackgroundImageFix" result="effect1_dropShadow_29_319"/>
<feBlend mode="normal" in="SourceGraphic" in2="effect1_dropShadow_29_319" result="shape"/>
</filter>
<filter id="filter2_d_29_319" x="-11.3555" y="902" width="1695.99" height="961.354" filterUnits="userSpaceOnUse" color-interpolation-filters="sRGB">
<feFlood flood-opacity="0" result="BackgroundImageFix"/>
<feColorMatrix in="SourceAlpha" type="matrix" values="0 0 0 0 0 0 0 0 0 0 0 0 0 0 0 0 0 0 127 0" result="hardAlpha"/>
<feOffset dy="-4"/>
<feGaussianBlur stdDeviation="6"/>
<feComposite in2="hardAlpha" operator="out"/>
<feColorMatrix type="matrix" values="0 0 0 0 0.247059 0 0 0 0 0.341176 0 0 0 0 0.384314 0 0 0 0.1 0"/>
<feBlend mode="normal" in2="BackgroundImageFix" result="effect1_dropShadow_29_319"/>
<feBlend mode="normal" in="SourceGraphic" in2="effect1_dropShadow_29_319" result="shape"/>
</filter>
<filter id="filter3_d_29_319" x="-11.3555" y="917.978" width="1695.99" height="955.938" filterUnits="userSpaceOnUse" color-interpolation-filters="sRGB">
<feFlood flood-opacity="0" result="BackgroundImageFix"/>
<feColorMatrix in="SourceAlpha" type="matrix" values="0 0 0 0 0 0 0 0 0 0 0 0 0 0 0 0 0 0 127 0" result="hardAlpha"/>
<feOffset dy="-4"/>
<feGaussianBlur stdDeviation="6"/>
<feComposite in2="hardAlpha" operator="out"/>
<feColorMatrix type="matrix" values="0 0 0 0 0.247059 0 0 0 0 0.341176 0 0 0 0 0.384314 0 0 0 0.05 0"/>
<feBlend mode="normal" in2="BackgroundImageFix" result="effect1_dropShadow_29_319"/>
<feBlend mode="normal" in="SourceGraphic" in2="effect1_dropShadow_29_319" result="shape"/>
</filter>
<filter id="filter4_d_29_319" x="-6.35547" y="3595" width="1685.99" height="1085" filterUnits="userSpaceOnUse" color-interpolation-filters="sRGB">
<feFlood flood-opacity="0" result="BackgroundImageFix"/>
<feColorMatrix in="SourceAlpha" type="matrix" values="0 0 0 0 0 0 0 0 0 0 0 0 0 0 0 0 0 0 127 0" result="hardAlpha"/>
<feOffset dy="-4"/>
<feGaussianBlur stdDeviation="3.5"/>
<feComposite in2="hardAlpha" operator="out"/>
<feColorMatrix type="matrix" values="0 0 0 0 0.247059 0 0 0 0 0.341176 0 0 0 0 0.384314 0 0 0 0.1 0"/>
<feBlend mode="normal" in2="BackgroundImageFix" result="effect1_dropShadow_29_319"/>
<feBlend mode="normal" in="SourceGraphic" in2="effect1_dropShadow_29_319" result="shape"/>
</filter>
<filter id="filter5_d_29_319" x="-4.35547" y="3632.69" width="1681.99" height="1042.22" filterUnits="userSpaceOnUse" color-interpolation-filters="sRGB">
<feFlood flood-opacity="0" result="BackgroundImageFix"/>
<feColorMatrix in="SourceAlpha" type="matrix" values="0 0 0 0 0 0 0 0 0 0 0 0 0 0 0 0 0 0 127 0" result="hardAlpha"/>
<feOffset dy="-6"/>
<feGaussianBlur stdDeviation="2.5"/>
<feComposite in2="hardAlpha" operator="out"/>
<feColorMatrix type="matrix" values="0 0 0 0 0.247059 0 0 0 0 0.341176 0 0 0 0 0.384314 0 0 0 0.1 0"/>
<feBlend mode="normal" in2="BackgroundImageFix" result="effect1_dropShadow_29_319"/>
<feBlend mode="normal" in="SourceGraphic" in2="effect1_dropShadow_29_319" result="shape"/>
</filter>
<filter id="filter6_d_29_319" x="-6.35547" y="1696" width="1685.99" height="1085" filterUnits="userSpaceOnUse" color-interpolation-filters="sRGB">
<feFlood flood-opacity="0" result="BackgroundImageFix"/>
<feColorMatrix in="SourceAlpha" type="matrix" values="0 0 0 0 0 0 0 0 0 0 0 0 0 0 0 0 0 0 127 0" result="hardAlpha"/>
<feOffset dy="-4"/>
<feGaussianBlur stdDeviation="3.5"/>
<feComposite in2="hardAlpha" operator="out"/>
<feColorMatrix type="matrix" values="0 0 0 0 0.247059 0 0 0 0 0.341176 0 0 0 0 0.384314 0 0 0 0.1 0"/>
<feBlend mode="normal" in2="BackgroundImageFix" result="effect1_dropShadow_29_319"/>
<feBlend mode="normal" in="SourceGraphic" in2="effect1_dropShadow_29_319" result="shape"/>
</filter>
<filter id="filter7_d_29_319" x="-4.35547" y="1733.69" width="1681.99" height="1042.22" filterUnits="userSpaceOnUse" color-interpolation-filters="sRGB">
<feFlood flood-opacity="0" result="BackgroundImageFix"/>
<feColorMatrix in="SourceAlpha" type="matrix" values="0 0 0 0 0 0 0 0 0 0 0 0 0 0 0 0 0 0 127 0" result="hardAlpha"/>
<feOffset dy="-6"/>
<feGaussianBlur stdDeviation="2.5"/>
<feComposite in2="hardAlpha" operator="out"/>
<feColorMatrix type="matrix" values="0 0 0 0 0.247059 0 0 0 0 0.341176 0 0 0 0 0.384314 0 0 0 0.1 0"/>
<feBlend mode="normal" in2="BackgroundImageFix" result="effect1_dropShadow_29_319"/>
<feBlend mode="normal" in="SourceGraphic" in2="effect1_dropShadow_29_319" result="shape"/>
</filter>
<filter id="filter8_d_29_319" x="-16" y="2588.5" width="1700.63" height="970.854" filterUnits="userSpaceOnUse" color-interpolation-filters="sRGB">
<feFlood flood-opacity="0" result="BackgroundImageFix"/>
<feColorMatrix in="SourceAlpha" type="matrix" values="0 0 0 0 0 0 0 0 0 0 0 0 0 0 0 0 0 0 127 0" result="hardAlpha"/>
<feOffset dy="-4"/>
<feGaussianBlur stdDeviation="6"/>
<feComposite in2="hardAlpha" operator="out"/>
<feColorMatrix type="matrix" values="0 0 0 0 0.247059 0 0 0 0 0.341176 0 0 0 0 0.384314 0 0 0 0.1 0"/>
<feBlend mode="normal" in2="BackgroundImageFix" result="effect1_dropShadow_29_319"/>
<feBlend mode="normal" in="SourceGraphic" in2="effect1_dropShadow_29_319" result="shape"/>
</filter>
<filter id="filter9_d_29_319" x="-11.3555" y="2613.98" width="1695.99" height="955.938" filterUnits="userSpaceOnUse" color-interpolation-filters="sRGB">
<feFlood flood-opacity="0" result="BackgroundImageFix"/>
<feColorMatrix in="SourceAlpha" type="matrix" values="0 0 0 0 0 0 0 0 0 0 0 0 0 0 0 0 0 0 127 0" result="hardAlpha"/>
<feOffset dy="-4"/>
<feGaussianBlur stdDeviation="6"/>
<feComposite in2="hardAlpha" operator="out"/>
<feColorMatrix type="matrix" values="0 0 0 0 0.247059 0 0 0 0 0.341176 0 0 0 0 0.384314 0 0 0 0.05 0"/>
<feBlend mode="normal" in2="BackgroundImageFix" result="effect1_dropShadow_29_319"/>
<feBlend mode="normal" in="SourceGraphic" in2="effect1_dropShadow_29_319" result="shape"/>
</filter>
<filter id="filter10_d_29_319" x="-11.3555" y="4497" width="1695.99" height="961.354" filterUnits="userSpaceOnUse" color-interpolation-filters="sRGB">
<feFlood flood-opacity="0" result="BackgroundImageFix"/>
<feColorMatrix in="SourceAlpha" type="matrix" values="0 0 0 0 0 0 0 0 0 0 0 0 0 0 0 0 0 0 127 0" result="hardAlpha"/>
<feOffset dy="-4"/>
<feGaussianBlur stdDeviation="6"/>
<feComposite in2="hardAlpha" operator="out"/>
<feColorMatrix type="matrix" values="0 0 0 0 0.247059 0 0 0 0 0.341176 0 0 0 0 0.384314 0 0 0 0.1 0"/>
<feBlend mode="normal" in2="BackgroundImageFix" result="effect1_dropShadow_29_319"/>
<feBlend mode="normal" in="SourceGraphic" in2="effect1_dropShadow_29_319" result="shape"/>
</filter>
<filter id="filter11_d_29_319" x="-11.3555" y="4545.68" width="1695.99" height="923.232" filterUnits="userSpaceOnUse" color-interpolation-filters="sRGB">
<feFlood flood-opacity="0" result="BackgroundImageFix"/>
<feColorMatrix in="SourceAlpha" type="matrix" values="0 0 0 0 0 0 0 0 0 0 0 0 0 0 0 0 0 0 127 0" result="hardAlpha"/>
<feOffset dy="-4"/>
<feGaussianBlur stdDeviation="6"/>
<feComposite in2="hardAlpha" operator="out"/>
<feColorMatrix type="matrix" values="0 0 0 0 0.247059 0 0 0 0 0.341176 0 0 0 0 0.384314 0 0 0 0.05 0"/>
<feBlend mode="normal" in2="BackgroundImageFix" result="effect1_dropShadow_29_319"/>
<feBlend mode="normal" in="SourceGraphic" in2="effect1_dropShadow_29_319" result="shape"/>
</filter>
</defs>
</svg>
